PathFileType	4	(X/Y/Z)	F:/Ayumi_testdata/Ayumi_25_09_2024/new_static/static_00.trc																																																																																																																																																																																																				
DataRate	CameraRate	NumFrames	NumMarkers	Units	OrigDataRate	OrigDataStartFrame	OrigNumFrames																																																																																																																																																																																																
200	200	5	66	mm	200	222	295																																																																																																																																																																																																
Frame#	Time	LASI			RASI			RSACR			LSACR			USACR			LBAR			RBAR			RHEE			RMT1			RMT5			RMT2			LHEE			LMT1			LMT5			LMT2			LMMAL			LMFC			LLFC			LLMAL			LTIB4			LTIB2			LTIB3			LTIB1			RMMAL			RMFC			RLFC			RLMAL			RTIB1			RTIB2			RTIB3			RTHI1			RTHI4			RTHI3			RTHI2			LTHI1			LTHI4			LTHI3			LTHI2			FHD			LBHD			RBHD			C7			T10			CLAV			LSHO			RSHO			LRAD			LUL			LRFIN			RRAD			RUL			RUFIN			RLEP			RMEP			LLEP			LMEP			LDUPA			LMUPA			LUUPA			RDUPA			RUUPA			RMUPA			LKJC			RKJC			LAJC			RAJC		
		X1	Y1	Z1	X2	Y2	Z2	X3	Y3	Z3	X4	Y4	Z4	X5	Y5	Z5	X6	Y6	Z6	X7	Y7	Z7	X8	Y8	Z8	X9	Y9	Z9	X10	Y10	Z10	X11	Y11	Z11	X12	Y12	Z12	X13	Y13	Z13	X14	Y14	Z14	X15	Y15	Z15	X16	Y16	Z16	X17	Y17	Z17	X18	Y18	Z18	X19	Y19	Z19	X20	Y20	Z20	X21	Y21	Z21	X22	Y22	Z22	X23	Y23	Z23	X24	Y24	Z24	X25	Y25	Z25	X26	Y26	Z26	X27	Y27	Z27	X28	Y28	Z28	X29	Y29	Z29	X30	Y30	Z30	X31	Y31	Z31	X32	Y32	Z32	X33	Y33	Z33	X34	Y34	Z34	X35	Y35	Z35	X36	Y36	Z36	X37	Y37	Z37	X38	Y38	Z38	X39	Y39	Z39	X40	Y40	Z40	X41	Y41	Z41	X42	Y42	Z42	X43	Y43	Z43	X44	Y44	Z44	X45	Y45	Z45	X46	Y46	Z46	X47	Y47	Z47	X48	Y48	Z48	X49	Y49	Z49	X50	Y50	Z50	X51	Y51	Z51	X52	Y52	Z52	X53	Y53	Z53	X54	Y54	Z54	X55	Y55	Z55	X56	Y56	Z56	X57	Y57	Z57	X58	Y58	Z58	X59	Y59	Z59	X60	Y60	Z60	X61	Y61	Z61	X62	Y62	Z62	X63	Y63	Z63	X64	Y64	Z64	X65	Y65	Z65	X66	Y66	Z66
																																																																																																																																																																																																							
222	1.105	134.057373	761.9549561	918.2644653	129.8832855	984.4747925	918.9418945	309.5698547	912.3019409	950.0437012	308.7537231	852.3822021	953.2741699	297.9120178	882.2668457	966.4315796	1270.829834	-346.4829712	26.30662537	1226.424927	1876.960815	26.28257561	323.0791626	1019.664978	39.8193512	128.1774445	1043.31958	43.4311409	165.0066223	1113.797241	34.98173141	140.1787567	1079.971313	42.69431686	326.2695007	745.1672363	45.82902145	134.3901978	736.4537964	46.32362747	169.9684296	662.7873535	33.41988754	143.1756592	698.039978	45.91189575	276.6895447	778.6869507	72.94235229	232.9241943	829.0131226	456.9364014	219.289917	721.3897095	454.0040283	278.818573	700.9893799	69.13915253	290.2918701	691.4442139	209.6003571	313.94104	691.3752441	270.8959351	263.3929749	684.4365845	268.1347351	301.5087585	687.1303711	314.3000183	275.1825562	994.0791016	68.34811401	235.3137512	935.368103	446.5523071	220.6291504	1041.228394	461.3241577	284.6780396	1068.606934	72.24764252	257.1133423	1082.692505	319.2741699	307.5592041	1077.175903	314.0100098	276.5872803	1081.315918	256.1342773	241.8564911	1060.045532	783.8547974	242.908905	1064.522827	635.1516724	191.4850159	1066.591309	637.0618896	219.1188965	1070.186157	697.1882324	238.6538849	698.6317749	778.8585815	236.4487457	694.2915039	646.7687988	185.8868866	693.354126	637.4797974	200.3208771	689.1645508	701.2120972	130.8076172	775.6543579	1592.938721	241.6039429	786.6151733	1576.136353	253.1625061	910.0949707	1571.354004	263.6046448	857.9207153	1391.415039	285.9744873	877.3431396	1007.456543	141.462204	872.7216797	1328.030518	245.4243011	725.161377	1380.983521	237.2181244	986.8041992	1396.811523	166.0992889	222.708847	1358.759888	206.7302856	222.3409576	1354.27002	152.6647644	130.8119202	1338.092041	241.4967041	1500.601807	1390.089844	288.4115295	1499.730469	1383.991943	235.7108459	1590.771606	1392.354614	293.8306885	1271.387451	1330.350708	255.5172577	1271.9552	1296.781372	222.0689087	454.0884705	1300.48645	181.1971588	466.788269	1278.075806	238.0839996	506.1086426	1354.147339	202.1776276	536.675293	1371.708984	239.2320557	585.31604	1362.719849	266.840332	1205.680054	1382.650879	257.5999756	1143.967285	1384.225464	216.5729828	1212.196411	1385.758789	226.1070557	775.201416	455.4702148	227.9714508	988.2982178	453.9382324	277.7540588	739.8381348	71.04075623	279.9302979	1031.343018	70.29788208
223	1.11	134.0658417	761.9563599	918.2717896	129.898468	984.4691772	918.9538574	309.5748291	912.3016357	950.034668	308.769043	852.3821411	953.2740479	297.9226379	882.2615356	966.4138184	1270.815063	-346.4928589	26.29224586	1226.421509	1876.963135	26.28104019	323.0715637	1019.666565	39.8217926	128.1817474	1043.329346	43.43587494	165.072998	1113.678467	34.81984711	140.1735992	1079.965942	42.6953392	326.2640381	745.1744385	45.82292938	134.3947144	736.4494019	46.32201767	169.9762268	662.7848511	33.40181351	143.1766357	698.0411377	45.91175842	276.6882019	778.69104	72.9479599	232.9110107	829.0216675	456.9321899	219.2913208	721.3920288	453.9982605	278.8156433	700.9874268	69.13254547	290.2892151	691.4415894	209.6047668	313.9473267	691.3771973	270.9017334	263.4607239	684.4925537	268.1607361	301.5405884	687.0813599	314.3211975	275.1811523	994.0704346	68.34783173	235.2981262	935.3638916	446.5604553	220.6273193	1041.222412	461.3250427	284.6775208	1068.601318	72.24682617	257.1119995	1082.691895	319.2781982	307.5545959	1077.168701	314.0024719	276.579834	1081.321289	256.1360779	241.8660278	1060.05481	783.8572388	242.8876648	1064.509644	635.1490479	191.4671326	1066.587646	637.0569458	219.2232361	1070.107178	697.052063	238.6572876	698.6257935	778.8641968	236.5108948	694.9845581	646.5721436	185.8650665	693.3867798	637.4874878	200.3137665	689.1697998	701.211792	130.8131561	775.6471558	1592.918945	241.5950012	786.6175537	1576.147339	253.1740417	910.1031494	1571.354248	263.6419983	857.9188232	1391.416626	285.9862061	877.3322754	1007.459045	141.4960632	872.717041	1328.03772	245.4503174	725.1530762	1380.988037	237.2434235	986.7974243	1396.819214	166.0984192	222.7085571	1358.690552	206.71138	222.3362732	1354.204224	152.6493073	130.8093872	1338.015869	241.5174103	1500.594238	1390.123169	288.4283142	1499.728882	1384.032104	235.7390442	1590.754883	1392.393433	293.8473511	1271.379517	1330.368652	255.5408936	1271.950195	1296.813599	222.0796967	454.0972595	1300.443237	181.2067261	466.8037415	1278.038086	238.0822449	506.1098938	1354.140747	202.1859741	536.6765137	1371.677856	239.2499695	585.3201904	1362.71167	266.8551941	1205.670044	1382.659912	257.6269226	1143.95813	1384.239136	216.6025085	1212.150757	1385.696655	226.1011658	775.2068481	455.46521	227.9627228	988.2931519	453.942749	277.7519226	739.8392334	71.04025269	279.9293213	1031.335938	70.29733276
224	1.115	134.0793152	761.9547119	918.2805786	129.9161682	984.4671631	918.9580688	309.5953674	912.2913208	950.0272827	308.7762756	852.3782349	953.2633667	297.9307861	882.2564087	966.4105835	1270.831787	-346.4478149	26.30570412	1226.42334	1876.951416	26.27716637	323.0819702	1019.660095	39.82356644	128.1856079	1043.318848	43.43344116	165.0723877	1113.676392	34.81056976	140.1754608	1079.965576	42.69094849	326.2678528	745.1659546	45.82505417	134.3883667	736.4489746	46.32778168	169.9662323	662.7918091	33.41708755	143.1766205	698.0420532	45.90493774	276.6916809	778.6921997	72.94493103	232.9095764	829.0249634	456.9319153	219.2814636	721.3897705	453.9953613	278.8194885	700.9834595	69.13732147	290.2802124	691.4384766	209.5935822	313.9604492	691.3726196	270.8916321	263.4562378	684.494873	268.1567688	301.6295166	687.0109253	314.3138428	275.1740112	994.0626221	68.35042572	235.2926483	935.3521118	446.5519714	220.617981	1041.2146	461.3207397	284.6701355	1068.600952	72.24590302	257.0999451	1082.689331	319.2808533	307.5545044	1077.168213	314.0002747	276.5839233	1081.321289	256.1381531	241.885376	1060.046509	783.8530884	242.8858948	1064.527832	635.1546021	191.4648743	1066.572021	637.0471191	219.2428741	1070.108643	697.0507202	238.6585999	698.6221924	778.8623047	236.4841919	694.9204102	646.5737305	185.8688507	693.3597412	637.4956665	200.3022919	689.166687	701.2017822	130.8222504	775.6538696	1592.922119	241.6265259	786.6151733	1576.148071	253.184433	910.1104736	1571.369263	263.6690063	857.9243774	1391.426025	285.9989319	877.3395386	1007.442932	141.5361328	872.7073975	1328.055176	245.4806671	725.1506348	1380.994263	237.2651367	986.7907104	1396.823853	166.0830994	222.7845764	1358.462646	206.6999664	222.348053	1354.130127	152.6216888	130.8241119	1337.94165	241.5410767	1500.592773	1390.160034	288.454071	1499.713501	1384.066772	235.7674255	1590.739746	1392.444336	293.8697205	1271.365601	1330.396362	255.5465698	1271.962769	1296.837158	222.0887909	454.1020813	1300.412476	181.2223969	466.8166809	1277.996338	238.0948029	506.1158752	1354.111816	202.1909027	536.6750488	1371.654297	239.2655945	585.3051147	1362.684692	266.867157	1205.661743	1382.691162	257.6360474	1143.95166	1384.266479	216.6087952	1212.172241	1385.78064	226.09552	775.2073975	455.463623	227.9553223	988.2833252	453.9363403	277.7555847	739.8378296	71.04112244	279.9220581	1031.331787	70.29816437
225	1.12	134.0932922	761.9530029	918.2889404	129.9360046	984.4643555	918.9626465	309.6132202	912.2868042	950.0194092	308.7972717	852.3716431	953.2574463	297.9585266	882.2542725	966.3951416	1270.824463	-346.4682007	26.29868126	1226.421631	1876.944702	26.27944756	323.0788574	1019.653076	39.81968689	128.1789703	1043.329956	43.43553162	165.0099792	1113.793701	34.98154449	140.1749268	1079.974365	42.69164658	326.2590332	745.171814	45.82374191	134.3935547	736.4591675	46.32917786	169.9627991	662.7901611	33.42598343	143.1780548	698.0455933	45.9131279	276.6896973	778.6887207	72.94513702	232.913681	829.0254517	456.9280701	219.2783661	721.3882446	453.9861755	278.8100891	700.9876709	69.1362915	290.2737427	691.4416504	209.6031189	313.9452515	691.3762817	270.9069214	263.3797913	684.4244385	268.1365356	301.6278687	687.0064697	314.3291931	275.177887	994.0686646	68.34873199	235.2888794	935.3458862	446.5513916	220.6099548	1041.218628	461.3276978	284.6790771	1068.60083	72.25288391	257.1007385	1082.687378	319.277771	307.547821	1077.163574	313.9978943	276.5713501	1081.316162	256.1311951	241.8716583	1060.041748	783.855835	242.892334	1064.524902	635.1588745	191.4794617	1066.555786	637.0426025	219.2126312	1070.109375	697.0684204	238.6659088	698.6171265	778.8641968	236.4106598	694.269104	646.7397461	185.8549042	693.3639526	637.4897461	200.2892303	689.1621704	701.2113037	130.8544464	775.6463623	1592.911255	241.6421509	786.6195679	1576.162598	253.1854401	910.1047974	1571.370728	263.6882324	857.9243774	1391.419434	286.0153503	877.3294678	1007.435303	141.5673523	872.6953735	1328.054443	245.5072784	725.1567993	1381.010376	237.2910156	986.7890625	1396.832764	166.085144	222.8002472	1358.397461	206.7000122	222.3535614	1354.052368	152.6083832	130.8394928	1337.859863	241.574173	1500.582764	1390.202148	288.4855652	1499.712524	1384.108765	235.7976074	1590.743286	1392.499512	293.9021301	1271.372803	1330.428223	255.5834503	1271.961548	1296.870117	222.0996552	454.1195679	1300.367798	181.2331238	466.8381653	1277.963745	238.1114807	506.1177063	1354.079102	202.2031097	536.6838989	1371.632446	239.2992401	585.2835693	1362.688232	266.8807678	1205.659424	1382.718872	257.6555786	1143.953735	1384.286621	216.6436462	1212.164673	1385.799927	226.0960236	775.2068481	455.4571228	227.9494171	988.2822266	453.9395447	277.7498779	739.8381958	71.04071045	279.9284668	1031.334717	70.30081177
226	1.125	134.1045685	761.9533081	918.2977295	129.9476318	984.4675903	918.9736938	309.6283569	912.2836914	950.0062256	308.8158569	852.3566284	953.2474365	297.9742737	882.2443848	966.3907471	1270.816162	-346.4786987	26.29416466	1226.427612	1876.954224	26.28530121	323.077179	1019.649719	39.8134079	128.1785126	1043.329468	43.43183136	165.0189056	1113.786743	34.97054672	140.1710358	1079.96814	42.6860733	326.2641296	745.163208	45.82481384	134.3956451	736.4542236	46.33100128	170.1463776	662.8430176	33.25104523	143.1850739	698.0458374	45.91151047	276.6886597	778.687561	72.94260406	232.9054565	829.0202637	456.9389954	219.2844238	721.3913574	453.9898682	278.8118286	700.9827271	69.12436676	290.2658691	691.4454956	209.6031647	313.9487915	691.3703613	270.9049072	263.3829041	684.4141846	268.1408691	301.6446228	687.0084229	314.3136597	275.1821594	994.0736694	68.34945679	235.2897034	935.3435669	446.5549316	220.6018066	1041.21167	461.3246155	284.6808472	1068.596558	72.24771881	257.0950623	1082.69165	319.2800903	307.5429077	1077.171631	314.0038452	276.5615234	1081.322021	256.1350708	241.8824463	1060.037231	783.8521118	242.8845367	1064.52063	635.1565552	191.4365082	1066.584473	637.0734863	219.1931763	1070.126465	697.0714111	238.6662292	698.6079102	778.8639526	236.479538	694.9005737	646.5556641	185.844986	693.3638306	637.5009155	200.2650757	689.1518555	701.2058716	130.8632813	775.6386108	1592.906372	241.6535187	786.617981	1576.162842	253.2032013	910.1086426	1571.388184	263.7335205	857.9242554	1391.424438	286.030365	877.3241577	1007.434692	141.604187	872.6991577	1328.063843	245.5334167	725.1575317	1381.004639	237.3140869	986.7849731	1396.847168	166.0803223	222.7977905	1358.318726	206.6998749	222.3418121	1353.976929	152.6002197	130.8468781	1337.777222	241.6041107	1500.579468	1390.251221	288.4961548	1499.704468	1384.150757	235.8382416	1590.73645	1392.547241	293.9307556	1271.367065	1330.452393	255.6275482	1271.956543	1296.897949	222.1070709	454.1255493	1300.340698	181.2431183	466.8482971	1277.932617	238.1325989	506.1191711	1354.04541	202.2129517	536.6847534	1371.604004	239.3052979	585.2897339	1362.684937	266.907196	1205.659546	1382.745361	257.6655579	1143.947998	1384.308228	216.6681366	1212.155396	1385.821045	226.0949402	775.2058105	455.4644165	227.945755	988.2775879	453.9397583	277.7502441	739.835144	71.03348541	279.9315186	1031.335083	70.29858398
